<svg width="331" height="229" viewBox="0 0 331 229" fill="none" xmlns="http://www.w3.org/2000/svg">
<g filter="url(#filter0_i_2_15)">
<path d="M170.111 53.9874C144.252 84.2532 122.704 60.7817 82.6844 50.899C15.8529 34.395 0.227345 96.1273 0.227234 144.785C0.227123 193.442 38.174 226.935 70.7341 226.935C121.361 226.935 131.564 186.529 157.605 186.529C190.307 186.529 232.294 238.671 283.396 226.935C330.803 216.048 347.018 82.1494 311.717 31.7512C263.694 -36.8102 195.969 23.7215 170.111 53.9874Z" fill="#F1F1FA"/>
</g>
<mask id="mask0_2_15" style="mask-type:alpha" maskUnits="userSpaceOnUse" x="0" y="0" width="331" height="229">
<path d="M170.111 53.9874C144.252 84.2532 122.704 60.7817 82.6844 50.899C15.8529 34.395 0.227345 96.1273 0.227234 144.785C0.227123 193.442 38.174 226.935 70.7341 226.935C121.361 226.935 131.564 186.529 157.605 186.529C190.307 186.529 232.294 238.671 283.396 226.935C330.803 216.048 347.018 82.1494 311.717 31.7512C263.694 -36.8102 195.969 23.7215 170.111 53.9874Z" fill="#F1F1FA"/>
</mask>
<g mask="url(#mask0_2_15)">
<path d="M327.033 208.519L331.079 210.171L94.0429 275.954C24.0919 268.524 -109.612 244.965 -84.8214 210.171C-53.8328 166.678 -19.0385 140.583 62.5106 140.583C160.654 140.583 173.739 145.926 327.033 208.519Z" fill="#EAB9A9"/>
<path d="M315.08 137.321C354.223 137.321 385.756 146.019 418.919 187.881L312.905 236.811C242.954 229.381 143.501 237.354 168.291 202.56C199.28 159.067 233.531 137.321 315.08 137.321Z" fill="#EAB9A9" stroke="#F1F1FA" stroke-width="4.34928"/>
<path d="M50.4813 200.611V200.111H49.9813H40.4962C32.3576 200.111 25.7355 193.489 25.7355 185.351V166.791C25.7355 162.055 29.5644 158.217 34.3099 158.217C39.0372 158.217 42.8841 162.064 42.8841 166.791V182.463V182.963H43.3841H49.9813H50.4813V182.463V145.139C50.4813 138.682 55.7062 133.471 62.1488 133.471C68.5819 133.471 73.8163 138.706 73.8163 145.139V166.997V167.497H74.3163H80.9135H81.4135V166.997V157.512C81.4135 152.776 85.2423 148.937 89.9877 148.937C94.7151 148.937 98.5621 152.784 98.5621 157.512V169.885C98.5621 178.023 91.94 184.645 83.8014 184.645H74.3163H73.8163V185.145V225.768C73.8163 227.087 72.7472 228.156 71.4284 228.156H52.8692C51.5504 228.156 50.4813 227.087 50.4813 225.768V200.611Z" fill="#DF5223" stroke="black"/>
<path fill-rule="evenodd" clip-rule="evenodd" d="M260.505 229.125C262.921 229.985 265.521 230.454 268.227 230.457C268.235 230.457 268.243 230.457 268.251 230.457C268.259 230.457 268.267 230.457 268.275 230.457C270.982 230.455 273.582 229.985 275.998 229.125C276.007 229.125 276.017 229.125 276.027 229.125L282.107 229.138H282.109C282.549 229.138 282.907 228.782 282.907 228.341C282.908 227.9 282.552 227.542 282.11 227.541L279.503 227.536C282.473 225.878 285.042 223.585 287.026 220.841L291.949 217.709C292.321 217.473 292.431 216.979 292.194 216.607C291.957 216.235 291.465 216.124 291.091 216.362L288.916 217.746C290.231 215.155 291.073 212.284 291.327 209.249C291.333 209.237 291.338 209.225 291.343 209.213L293.739 203.623C293.913 203.217 293.725 202.748 293.319 202.575C292.918 202.401 292.445 202.589 292.271 202.994L291.317 205.22C291.052 202.204 290.214 199.325 288.874 196.712C288.874 196.677 288.871 196.642 288.866 196.606L288.005 190.587C287.943 190.15 287.539 189.847 287.101 189.909C286.665 189.972 286.361 190.376 286.424 190.813L286.793 193.39C285.031 191.051 282.804 189.03 280.185 187.452C279.808 187.225 279.316 187.346 279.089 187.724C278.861 188.102 278.983 188.592 279.361 188.82C281.967 190.39 284.154 192.43 285.843 194.799L283.192 193.565C282.79 193.379 282.317 193.553 282.132 193.951C281.945 194.351 282.119 194.826 282.519 195.013L287.361 197.268C288.79 199.993 289.63 203.033 289.785 206.221L288.08 203.664C287.835 203.297 287.34 203.198 286.973 203.442C286.605 203.687 286.506 204.183 286.751 204.55L289.742 209.036C289.427 212.969 288.052 216.608 285.904 219.666C285.775 219.765 285.684 219.896 285.634 220.041C284.534 221.538 283.244 222.889 281.802 224.058C284.31 221.02 285.818 217.128 285.818 212.89C285.818 209.487 284.864 206.26 283.126 203.509L283.42 200.185C283.459 199.745 283.133 199.358 282.694 199.319C282.246 199.286 281.868 199.606 281.829 200.044L281.695 201.56C280.47 200.113 278.995 198.851 277.304 197.833C276.926 197.605 276.435 197.727 276.208 198.105C275.981 198.482 276.102 198.973 276.48 199.2C280.23 201.459 282.81 205.033 283.787 209.152L282.671 208.705C282.266 208.543 281.797 208.74 281.633 209.15C281.469 209.56 281.669 210.024 282.079 210.188L284.112 211.002C284.185 211.623 284.221 212.253 284.221 212.89C284.221 214.693 283.921 216.428 283.368 218.045L282.572 217.151C282.279 216.821 281.775 216.792 281.446 217.084C281.116 217.378 281.086 217.882 281.379 218.212L282.698 219.695C281.581 222.057 279.902 224.103 277.834 225.658C279.337 223.657 280.229 221.17 280.229 218.48C280.229 216.733 279.853 215.073 279.178 213.575L279.184 213.558L279.933 211.462C280.082 211.047 279.865 210.59 279.449 210.441C279.034 210.293 278.577 210.51 278.429 210.925L278.142 211.73C275.982 208.576 272.355 206.502 268.252 206.502C267.81 206.502 267.453 206.86 267.453 207.301C267.453 207.742 267.81 208.099 268.252 208.099C268.655 208.099 269.053 208.123 269.445 208.168L267.753 210.529C267.495 210.887 267.578 211.386 267.936 211.643C268.077 211.744 268.24 211.792 268.401 211.792C268.649 211.792 268.894 211.677 269.05 211.459L271.161 208.514C275.473 209.775 278.632 213.765 278.632 218.48C278.632 220.605 277.99 222.583 276.89 224.23L276.197 223.219C275.947 222.855 275.451 222.762 275.086 223.012C274.722 223.261 274.63 223.758 274.879 224.122L275.853 225.542C274.886 226.582 273.708 227.424 272.389 228C269.552 226.097 267.459 223.669 266.121 220.74L267.296 219.155C267.558 218.8 267.484 218.301 267.13 218.038C266.774 217.776 266.275 217.85 266.013 218.204L265.431 218.989C264.766 217.001 264.407 214.811 264.359 212.425C264.253 207.139 265.793 202.825 265.808 202.782C265.958 202.368 265.744 201.91 265.33 201.759C264.916 201.611 264.458 201.823 264.307 202.237C264.285 202.298 263.557 204.36 263.12 207.417L261.501 205.287C261.235 204.937 260.734 204.867 260.382 205.135C260.031 205.402 259.963 205.903 260.23 206.254L262.759 209.581C262.793 209.626 262.832 209.667 262.873 209.703C262.559 214.094 263.083 219.703 266.472 224.479L266.105 224.549C265.673 224.632 265.388 225.05 265.471 225.483C265.544 225.866 265.879 226.132 266.255 226.132C266.304 226.132 266.354 226.127 266.405 226.118L267.584 225.893C268.417 226.852 269.384 227.765 270.503 228.614C269.806 228.769 269.082 228.854 268.341 228.86C268.311 228.86 268.281 228.86 268.252 228.86C268.222 228.86 268.192 228.86 268.162 228.86C264.762 228.831 261.746 227.159 259.872 224.6L260.703 223.504C260.97 223.153 260.901 222.652 260.55 222.385C260.196 222.117 259.697 222.188 259.431 222.539L258.976 223.138C258.269 221.736 257.871 220.154 257.871 218.48C257.871 216.344 258.514 214.293 259.732 212.549C259.984 212.187 259.895 211.689 259.534 211.437C259.17 211.183 258.673 211.273 258.422 211.635C258.051 212.167 257.726 212.723 257.449 213.3L257.203 213.04C256.9 212.719 256.395 212.707 256.074 213.009C255.754 213.313 255.741 213.818 256.044 214.138L256.805 214.941C256.454 216.077 256.274 217.266 256.274 218.48C256.274 221.171 257.166 223.657 258.67 225.659C255.386 223.189 253.083 219.484 252.454 215.241L254.51 212.58C254.78 212.231 254.716 211.73 254.366 211.46C254.017 211.188 253.514 211.255 253.247 211.604L252.282 212.853C252.3 204.973 258.178 198.197 265.969 197.082C266.406 197.02 266.709 196.615 266.647 196.179C266.584 195.742 266.18 195.436 265.743 195.502C260.819 196.206 256.59 198.965 253.878 202.829V200.913C253.878 200.472 253.521 200.114 253.08 200.114C252.639 200.114 252.281 200.472 252.281 200.913V205.608C251.255 207.841 250.685 210.312 250.685 212.89C250.685 213.629 250.73 214.357 250.819 215.072C250.821 215.104 250.826 215.137 250.832 215.169C251.267 218.517 252.649 221.573 254.7 224.057C253.258 222.889 251.969 221.538 250.868 220.04C250.819 219.896 250.728 219.765 250.6 219.667C248.451 216.609 247.076 212.969 246.761 209.036L249.752 204.55C249.997 204.183 249.898 203.687 249.53 203.442C249.162 203.198 248.667 203.297 248.423 203.664L246.718 206.221C246.873 203.048 247.71 200.006 249.159 197.26L253.985 195.013C254.385 194.826 254.558 194.351 254.371 193.951C254.186 193.552 253.712 193.379 253.311 193.565L250.689 194.786C251.42 193.765 252.247 192.8 253.164 191.901C253.479 191.593 253.483 191.087 253.174 190.772C252.867 190.457 252.361 190.452 252.045 190.76C251.191 191.597 250.41 192.488 249.706 193.425L250.079 190.813C250.142 190.376 249.838 189.972 249.402 189.909C248.965 189.85 248.56 190.151 248.498 190.587L247.637 196.606C247.631 196.65 247.628 196.694 247.629 196.737C246.282 199.361 245.45 202.229 245.186 205.22L244.232 202.994C244.058 202.588 243.585 202.401 243.184 202.575C242.778 202.748 242.59 203.218 242.764 203.623L245.16 209.212C245.165 209.225 245.171 209.237 245.176 209.249C245.43 212.284 246.272 215.155 247.588 217.746L245.412 216.362C245.039 216.126 244.546 216.234 244.309 216.607C244.072 216.979 244.182 217.473 244.554 217.709L249.477 220.842C251.461 223.585 254.03 225.878 257.001 227.536L254.392 227.541C253.951 227.542 253.595 227.9 253.595 228.341C253.596 228.782 253.953 229.138 254.394 229.138H254.395L260.476 229.125C260.486 229.125 260.496 229.125 260.505 229.125Z" fill="#DF5223"/>
<path d="M268.227 230.457L268.228 230.207H268.228L268.227 230.457ZM260.505 229.125L260.589 228.889L260.544 228.873L260.496 228.875L260.505 229.125ZM268.275 230.457L268.275 230.207H268.274L268.275 230.457ZM275.998 229.125L276.007 228.875L275.959 228.873L275.914 228.889L275.998 229.125ZM276.027 229.125L276.027 228.875H276.027L276.027 229.125ZM282.107 229.138L282.107 229.388H282.107V229.138ZM282.907 228.341L282.657 228.341L282.907 228.341ZM282.11 227.541L282.11 227.791H282.11L282.11 227.541ZM279.503 227.536L279.381 227.317L278.545 227.784L279.502 227.786L279.503 227.536ZM287.026 220.841L286.892 220.631L286.852 220.656L286.824 220.695L287.026 220.841ZM291.949 217.709L292.083 217.92L292.083 217.92L291.949 217.709ZM292.194 216.607L291.983 216.741L291.983 216.741L292.194 216.607ZM291.091 216.362L290.957 216.151L290.957 216.151L291.091 216.362ZM288.916 217.746L288.693 217.633L288.279 218.447L289.05 217.957L288.916 217.746ZM291.327 209.249L291.102 209.139L291.082 209.181L291.078 209.228L291.327 209.249ZM291.343 209.213L291.114 209.114L291.114 209.114L291.343 209.213ZM293.739 203.623L293.509 203.525L293.509 203.525L293.739 203.623ZM293.319 202.575L293.22 202.804L293.221 202.804L293.319 202.575ZM292.271 202.994L292.501 203.092L292.501 203.092L292.271 202.994ZM291.317 205.22L291.068 205.242L291.547 205.319L291.317 205.22ZM288.874 196.712L288.624 196.714L288.625 196.773L288.652 196.826L288.874 196.712ZM288.866 196.606L289.114 196.571L289.114 196.571L288.866 196.606ZM288.005 190.587L287.758 190.622V190.622L288.005 190.587ZM287.101 189.909L287.137 190.157L287.137 190.157L287.101 189.909ZM286.424 190.813L286.176 190.848L286.176 190.848L286.424 190.813ZM286.793 193.39L286.593 193.541L287.04 193.355L286.793 193.39ZM280.185 187.452L280.055 187.666L280.056 187.666L280.185 187.452ZM279.089 187.724L279.303 187.853L279.303 187.853L279.089 187.724ZM279.361 188.82L279.49 188.606L279.49 188.606L279.361 188.82ZM285.843 194.799L285.738 195.026L286.597 195.426L286.047 194.654L285.843 194.799ZM283.192 193.565L283.298 193.338L283.297 193.338L283.192 193.565ZM282.132 193.951L282.358 194.057L282.358 194.057L282.132 193.951ZM282.519 195.013L282.413 195.239L282.413 195.239L282.519 195.013ZM287.361 197.268L287.583 197.152L287.543 197.077L287.467 197.041L287.361 197.268ZM289.785 206.221L289.577 206.36L290.078 207.113L290.034 206.209L289.785 206.221ZM288.08 203.664L287.872 203.803V203.803L288.08 203.664ZM286.973 203.442L287.111 203.651L287.111 203.65L286.973 203.442ZM286.751 204.55L286.959 204.411L286.959 204.411L286.751 204.55ZM289.742 209.036L289.991 209.056L289.998 208.969L289.95 208.897L289.742 209.036ZM285.904 219.666L286.056 219.865L286.086 219.841L286.108 219.81L285.904 219.666ZM285.634 220.041L285.836 220.189L285.858 220.158L285.871 220.122L285.634 220.041ZM281.802 224.058L281.609 223.899L281.959 224.252L281.802 224.058ZM283.126 203.509L282.877 203.487L282.87 203.571L282.915 203.643L283.126 203.509ZM283.42 200.185L283.171 200.162L283.171 200.163L283.42 200.185ZM282.694 199.319L282.716 199.07L282.713 199.07L282.694 199.319ZM281.829 200.044L281.58 200.022L281.58 200.022L281.829 200.044ZM281.695 201.56L281.504 201.721L281.892 202.178L281.944 201.582L281.695 201.56ZM277.304 197.833L277.433 197.619L277.433 197.619L277.304 197.833ZM276.208 198.105L276.422 198.234L276.423 198.233L276.208 198.105ZM276.48 199.2L276.609 198.986L276.609 198.986L276.48 199.2ZM283.787 209.152L283.694 209.384L284.141 209.563L284.03 209.094L283.787 209.152ZM282.671 208.705L282.578 208.937L282.578 208.937L282.671 208.705ZM281.633 209.15L281.401 209.057V209.057L281.633 209.15ZM282.079 210.188L281.985 210.42L281.986 210.421L282.079 210.188ZM284.112 211.002L284.361 210.973L284.344 210.825L284.205 210.77L284.112 211.002ZM283.368 218.045L283.181 218.212L283.466 218.532L283.604 218.126L283.368 218.045ZM282.572 217.151L282.759 216.984L282.759 216.984L282.572 217.151ZM281.446 217.084L281.279 216.897L281.279 216.897L281.446 217.084ZM281.379 218.212L281.566 218.046L281.566 218.046L281.379 218.212ZM282.698 219.695L282.924 219.802L282.995 219.653L282.885 219.529L282.698 219.695ZM277.834 225.658L277.634 225.508L277.984 225.858L277.834 225.658ZM279.178 213.575L278.944 213.488L278.908 213.584L278.95 213.677L279.178 213.575ZM279.184 213.558L279.419 213.645L279.42 213.642L279.184 213.558ZM279.933 211.462L279.697 211.378L279.697 211.378L279.933 211.462ZM279.449 210.441L279.365 210.677L279.365 210.677L279.449 210.441ZM278.429 210.925L278.665 211.009L278.665 211.009L278.429 210.925ZM278.142 211.73L277.935 211.872L278.212 212.276L278.377 211.814L278.142 211.73ZM269.445 208.168L269.648 208.313L269.896 207.968L269.473 207.919L269.445 208.168ZM267.753 210.529L267.956 210.675L267.956 210.674L267.753 210.529ZM267.936 211.643L267.79 211.846L267.79 211.846L267.936 211.643ZM269.05 211.459L268.847 211.313L268.847 211.313L269.05 211.459ZM271.161 208.514L271.231 208.274L271.061 208.225L270.957 208.369L271.161 208.514ZM276.89 224.23L276.684 224.371L276.893 224.676L277.098 224.369L276.89 224.23ZM276.197 223.219L276.403 223.077L276.403 223.077L276.197 223.219ZM275.086 223.012L275.228 223.218L275.228 223.218L275.086 223.012ZM274.879 224.122L274.673 224.263L274.673 224.263L274.879 224.122ZM275.853 225.542L276.036 225.712L276.172 225.566L276.059 225.401L275.853 225.542ZM272.389 228L272.25 228.208L272.363 228.284L272.489 228.229L272.389 228ZM266.121 220.74L265.92 220.592L265.833 220.71L265.894 220.844L266.121 220.74ZM267.296 219.155L267.497 219.304L267.497 219.303L267.296 219.155ZM267.13 218.038L267.279 217.837L267.278 217.836L267.13 218.038ZM266.013 218.204L265.812 218.055L265.812 218.055L266.013 218.204ZM265.431 218.989L265.194 219.068L265.347 219.523L265.632 219.138L265.431 218.989ZM264.359 212.425L264.609 212.42V212.42L264.359 212.425ZM265.808 202.782L266.043 202.868L266.043 202.867L265.808 202.782ZM265.33 201.759L265.415 201.524L265.414 201.524L265.33 201.759ZM264.307 202.237L264.542 202.323L264.542 202.322L264.307 202.237ZM263.12 207.417L262.921 207.568L263.282 208.044L263.367 207.452L263.12 207.417ZM261.501 205.287L261.302 205.438L261.302 205.439L261.501 205.287ZM260.382 205.135L260.231 204.936L260.231 204.936L260.382 205.135ZM260.23 206.254L260.031 206.405L260.031 206.405L260.23 206.254ZM262.759 209.581L262.958 209.429L262.958 209.429L262.759 209.581ZM262.873 209.703L263.123 209.721L263.132 209.595L263.037 209.513L262.873 209.703ZM266.472 224.479L266.519 224.725L266.901 224.652L266.676 224.335L266.472 224.479ZM266.105 224.549L266.059 224.304L266.059 224.304L266.105 224.549ZM265.471 225.483L265.225 225.53L265.225 225.53L265.471 225.483ZM266.405 226.118L266.45 226.364L266.452 226.364L266.405 226.118ZM267.584 225.893L267.772 225.729L267.678 225.621L267.537 225.648L267.584 225.893ZM270.503 228.614L270.557 228.858L271.084 228.742L270.654 228.415L270.503 228.614ZM268.341 228.86L268.342 229.11L268.343 229.11L268.341 228.86ZM268.162 228.86L268.16 229.11L268.161 229.11L268.162 228.86ZM259.872 224.6L259.673 224.449L259.56 224.597L259.67 224.748L259.872 224.6ZM260.703 223.504L260.504 223.353L260.504 223.353L260.703 223.504ZM260.55 222.385L260.701 222.186L260.701 222.186L260.55 222.385ZM259.431 222.539L259.232 222.387L259.231 222.387L259.431 222.539ZM258.976 223.138L258.753 223.25L258.933 223.608L259.175 223.289L258.976 223.138ZM259.732 212.549L259.937 212.692L259.937 212.692L259.732 212.549ZM259.534 211.437L259.677 211.232L259.677 211.232L259.534 211.437ZM258.422 211.635L258.627 211.778L258.627 211.778L258.422 211.635ZM257.449 213.3L257.267 213.471L257.517 213.735L257.674 213.408L257.449 213.3ZM257.203 213.04L257.021 213.212L257.021 213.212L257.203 213.04ZM256.074 213.009L255.903 212.827L255.902 212.828L256.074 213.009ZM256.044 214.138L256.225 213.966L256.225 213.966L256.044 214.138ZM256.805 214.941L257.043 215.015L257.087 214.875L256.986 214.769L256.805 214.941ZM258.67 225.659L258.519 225.859L258.869 225.509L258.67 225.659ZM252.454 215.241L252.256 215.088L252.191 215.172L252.207 215.277L252.454 215.241ZM254.51 212.58L254.312 212.427L254.312 212.427L254.51 212.58ZM254.366 211.46L254.213 211.657L254.214 211.658L254.366 211.46ZM253.247 211.604L253.444 211.756L253.445 211.756L253.247 211.604ZM252.282 212.853L252.032 212.852L252.03 213.587L252.479 213.005L252.282 212.853ZM265.969 197.082L265.934 196.835L265.934 196.835L265.969 197.082ZM266.647 196.179L266.894 196.143L266.894 196.143L266.647 196.179ZM265.743 195.502L265.778 195.749L265.78 195.749L265.743 195.502ZM253.878 202.829H253.628V203.62L254.083 202.972L253.878 202.829ZM252.281 205.608L252.509 205.712L252.531 205.662V205.608H252.281ZM250.819 215.072L251.069 215.055L251.068 215.048L251.067 215.041L250.819 215.072ZM250.832 215.169L251.079 215.136L251.079 215.129L251.077 215.122L250.832 215.169ZM254.7 224.057L254.543 224.252L254.893 223.898L254.7 224.057ZM250.868 220.04L250.632 220.121L250.644 220.157L250.667 220.188L250.868 220.04ZM250.6 219.667L250.395 219.81L250.417 219.842L250.448 219.865L250.6 219.667ZM246.761 209.036L246.553 208.897L246.505 208.969L246.512 209.056L246.761 209.036ZM249.752 204.55L249.544 204.411L249.544 204.411L249.752 204.55ZM249.53 203.442L249.669 203.234L249.669 203.234L249.53 203.442ZM248.423 203.664L248.631 203.803L248.631 203.802L248.423 203.664ZM246.718 206.221L246.469 206.209L246.425 207.113L246.926 206.36L246.718 206.221ZM249.159 197.26L249.053 197.033L248.977 197.069L248.938 197.143L249.159 197.26ZM253.985 195.013L254.09 195.239L254.09 195.239L253.985 195.013ZM254.371 193.951L254.145 194.056L254.145 194.057L254.371 193.951ZM253.311 193.565L253.206 193.338L253.205 193.338L253.311 193.565ZM250.689 194.786L250.486 194.64L249.931 195.414L250.794 195.012L250.689 194.786ZM253.164 191.901L253.339 192.08L253.339 192.08L253.164 191.901ZM253.174 190.772L252.996 190.947L252.996 190.947L253.174 190.772ZM252.045 190.76L251.871 190.582L251.87 190.582L252.045 190.76ZM249.706 193.425L249.458 193.39L249.905 193.575L249.706 193.425ZM250.079 190.813L250.327 190.848L250.327 190.848L250.079 190.813ZM249.402 189.909L249.437 189.662L249.435 189.662L249.402 189.909ZM248.498 190.587L248.251 190.551L248.251 190.551L248.498 190.587ZM247.637 196.606L247.39 196.571L247.39 196.571L247.637 196.606ZM247.629 196.737L247.852 196.852L247.881 196.795L247.879 196.732L247.629 196.737ZM245.186 205.22L244.957 205.319L245.435 205.242L245.186 205.22ZM244.232 202.994L244.002 203.092L244.002 203.092L244.232 202.994ZM243.184 202.575L243.282 202.804L243.283 202.804L243.184 202.575ZM242.764 203.623L242.994 203.525L242.994 203.524L242.764 203.623ZM245.16 209.212L245.39 209.114L245.39 209.114L245.16 209.212ZM245.176 209.249L245.425 209.228L245.422 209.181L245.401 209.139L245.176 209.249ZM247.588 217.746L247.453 217.957L248.224 218.447L247.811 217.633L247.588 217.746ZM245.412 216.362L245.546 216.151L245.545 216.151L245.412 216.362ZM244.309 216.607L244.52 216.741L244.52 216.741L244.309 216.607ZM244.554 217.709L244.688 217.498L244.688 217.498L244.554 217.709ZM249.477 220.842L249.68 220.695L249.652 220.657L249.611 220.631L249.477 220.842ZM257.001 227.536L257.001 227.786L257.958 227.784L257.122 227.317L257.001 227.536ZM254.392 227.541L254.393 227.791H254.393L254.392 227.541ZM253.595 228.341L253.345 228.342L253.595 228.341ZM254.395 229.138V229.388H254.396L254.395 229.138ZM260.476 229.125L260.476 228.875H260.476L260.476 229.125ZM268.228 230.207C265.55 230.204 262.979 229.74 260.589 228.889L260.421 229.36C262.864 230.23 265.491 230.704 268.227 230.707L268.228 230.207ZM268.227 230.707C268.235 230.707 268.243 230.707 268.251 230.707V230.207C268.243 230.207 268.236 230.207 268.228 230.207L268.227 230.707ZM268.251 230.707C268.259 230.707 268.267 230.707 268.275 230.707L268.274 230.207C268.267 230.207 268.259 230.207 268.251 230.207V230.707ZM275.914 228.889C273.524 229.74 270.953 230.205 268.275 230.207L268.275 230.707C271.011 230.705 273.639 230.23 276.082 229.36L275.914 228.889ZM275.989 229.375C276.001 229.375 276.013 229.375 276.026 229.375L276.027 228.875C276.02 228.875 276.014 228.875 276.007 228.875L275.989 229.375ZM276.026 229.375L282.107 229.388L282.108 228.888L276.027 228.875L276.026 229.375ZM282.107 229.388H282.109V228.888H282.107V229.388ZM282.109 229.388C282.687 229.388 283.156 228.92 283.157 228.342L282.657 228.341C282.657 228.643 282.412 228.888 282.109 228.888V229.388ZM283.157 228.342C283.158 227.763 282.691 227.292 282.111 227.291L282.11 227.791C282.413 227.792 282.658 228.038 282.657 228.341L283.157 228.342ZM282.111 227.291L279.503 227.286L279.502 227.786L282.11 227.791L282.111 227.291ZM286.824 220.695C284.861 223.409 282.319 225.677 279.381 227.317L279.624 227.754C282.627 226.078 285.224 223.76 287.229 220.988L286.824 220.695ZM291.815 217.498L286.892 220.631L287.16 221.052L292.083 217.92L291.815 217.498ZM291.983 216.741C292.146 216.997 292.07 217.336 291.815 217.498L292.083 217.92C292.571 217.61 292.716 216.961 292.405 216.473L291.983 216.741ZM291.225 216.573C291.482 216.409 291.82 216.485 291.983 216.741L292.405 216.473C292.094 215.984 291.447 215.839 290.957 216.151L291.225 216.573ZM289.05 217.957L291.225 216.573L290.957 216.151L288.781 217.535L289.05 217.957ZM291.078 209.228C290.826 212.23 289.994 215.07 288.693 217.633L289.138 217.859C290.468 215.24 291.319 212.338 291.576 209.27L291.078 209.228ZM291.114 209.114C291.11 209.123 291.106 209.131 291.102 209.139L291.551 209.359C291.559 209.343 291.566 209.327 291.573 209.311L291.114 209.114ZM293.509 203.525L291.114 209.114L291.573 209.311L293.969 203.722L293.509 203.525ZM293.221 202.804C293.5 202.924 293.629 203.246 293.509 203.525L293.969 203.722C294.197 203.189 293.95 202.573 293.418 202.345L293.221 202.804ZM292.501 203.092C292.62 202.814 292.946 202.686 293.22 202.804L293.418 202.345C292.89 202.117 292.269 202.363 292.042 202.896L292.501 203.092ZM291.547 205.319L292.501 203.092L292.042 202.895L291.087 205.122L291.547 205.319ZM288.652 196.826C289.977 199.411 290.806 202.258 291.068 205.242L291.566 205.198C291.298 202.15 290.451 199.24 289.096 196.598L288.652 196.826ZM289.124 196.71C289.124 196.664 289.12 196.617 289.114 196.571L288.619 196.642C288.622 196.666 288.624 196.69 288.624 196.714L289.124 196.71ZM289.114 196.571L288.253 190.551L287.758 190.622L288.619 196.642L289.114 196.571ZM288.253 190.551C288.171 189.978 287.64 189.579 287.066 189.662L287.137 190.157C287.437 190.114 287.715 190.322 287.758 190.622L288.253 190.551ZM287.066 189.662C286.493 189.744 286.094 190.275 286.176 190.848L286.671 190.777C286.628 190.477 286.837 190.2 287.137 190.157L287.066 189.662ZM286.176 190.848L286.545 193.426L287.04 193.355L286.671 190.777L286.176 190.848ZM280.056 187.666C282.648 189.228 284.85 191.228 286.593 193.541L286.992 193.24C285.211 190.875 282.961 188.833 280.314 187.238L280.056 187.666ZM279.303 187.853C279.459 187.594 279.797 187.51 280.055 187.666L280.314 187.238C279.819 186.939 279.173 187.099 278.875 187.595L279.303 187.853ZM279.49 188.606C279.23 188.449 279.147 188.112 279.303 187.853L278.875 187.595C278.576 188.091 278.736 188.735 279.232 189.034L279.49 188.606ZM286.047 194.654C284.338 192.257 282.125 190.193 279.49 188.606L279.232 189.034C281.808 190.586 283.97 192.603 285.64 194.944L286.047 194.654ZM285.949 194.572L283.298 193.338L283.087 193.791L285.738 195.026L285.949 194.572ZM283.297 193.338C282.77 193.094 282.149 193.322 281.905 193.846L282.358 194.057C282.486 193.783 282.81 193.663 283.087 193.792L283.297 193.338ZM281.905 193.846C281.661 194.371 281.888 194.995 282.413 195.239L282.624 194.786C282.349 194.658 282.23 194.332 282.358 194.057L281.905 193.846ZM282.413 195.239L287.256 197.494L287.467 197.041L282.624 194.786L282.413 195.239ZM290.034 206.209C289.878 202.985 289.028 199.909 287.583 197.152L287.14 197.384C288.552 200.077 289.382 203.082 289.535 206.233L290.034 206.209ZM287.872 203.803L289.577 206.36L289.993 206.083L288.288 203.525L287.872 203.803ZM287.111 203.65C287.364 203.482 287.704 203.55 287.872 203.803L288.288 203.525C287.967 203.043 287.316 202.913 286.834 203.234L287.111 203.65ZM286.959 204.411C286.791 204.159 286.859 203.818 287.111 203.651L286.834 203.234C286.352 203.555 286.222 204.207 286.543 204.689L286.959 204.411ZM289.95 208.897L286.959 204.411L286.543 204.688L289.534 209.174L289.95 208.897ZM286.108 219.81C288.282 216.716 289.673 213.035 289.991 209.056L289.493 209.016C289.182 212.903 287.823 216.5 285.699 219.522L286.108 219.81ZM285.871 220.122C285.905 220.022 285.967 219.932 286.056 219.865L285.752 219.468C285.583 219.597 285.463 219.77 285.398 219.96L285.871 220.122ZM281.959 224.252C283.418 223.07 284.722 221.704 285.836 220.189L285.433 219.893C284.345 221.373 283.071 222.708 281.645 223.864L281.959 224.252ZM281.995 224.217C284.538 221.136 286.068 217.188 286.068 212.89H285.568C285.568 217.068 284.082 220.904 281.609 223.899L281.995 224.217ZM286.068 212.89C286.068 209.44 285.101 206.166 283.338 203.376L282.915 203.643C284.628 206.353 285.568 209.534 285.568 212.89H286.068ZM283.375 203.531L283.669 200.206L283.171 200.163L282.877 203.487L283.375 203.531ZM283.669 200.207C283.72 199.629 283.293 199.121 282.716 199.07L282.673 199.568C282.974 199.595 283.197 199.861 283.171 200.162L283.669 200.207ZM282.713 199.07C282.131 199.027 281.631 199.445 281.58 200.022L282.078 200.066C282.105 199.766 282.361 199.545 282.676 199.568L282.713 199.07ZM281.58 200.022L281.446 201.538L281.944 201.582L282.078 200.066L281.58 200.022ZM281.886 201.398C280.643 199.931 279.147 198.651 277.433 197.619L277.175 198.047C278.843 199.052 280.296 200.296 281.504 201.721L281.886 201.398ZM277.433 197.619C276.937 197.32 276.292 197.479 275.994 197.976L276.423 198.233C276.578 197.974 276.915 197.891 277.175 198.047L277.433 197.619ZM275.994 197.976C275.695 198.472 275.855 199.116 276.352 199.415L276.609 198.986C276.35 198.83 276.266 198.493 276.422 198.234L275.994 197.976ZM276.351 199.415C280.043 201.639 282.583 205.156 283.544 209.209L284.03 209.094C283.038 204.91 280.416 201.28 276.609 198.986L276.351 199.415ZM283.88 208.92L282.764 208.473L282.578 208.937L283.694 209.384L283.88 208.92ZM282.764 208.473C282.231 208.26 281.617 208.519 281.401 209.057L281.865 209.243C281.978 208.962 282.3 208.826 282.578 208.937L282.764 208.473ZM281.401 209.057C281.186 209.596 281.448 210.205 281.985 210.42L282.172 209.956C281.89 209.843 281.753 209.524 281.865 209.243L281.401 209.057ZM281.986 210.421L284.02 211.234L284.205 210.77L282.171 209.956L281.986 210.421ZM283.864 211.031C283.935 211.642 283.971 212.263 283.971 212.89H284.471C284.471 212.244 284.434 211.604 284.361 210.973L283.864 211.031ZM283.971 212.89C283.971 214.665 283.676 216.372 283.131 217.965L283.604 218.126C284.166 216.483 284.471 214.721 284.471 212.89H283.971ZM283.555 217.879L282.759 216.984L282.385 217.317L283.181 218.212L283.555 217.879ZM282.759 216.984C282.374 216.552 281.712 216.513 281.279 216.897L281.612 217.271C281.838 217.07 282.184 217.09 282.386 217.317L282.759 216.984ZM281.279 216.897C280.846 217.282 280.807 217.945 281.192 218.378L281.566 218.046C281.365 217.819 281.385 217.473 281.612 217.271L281.279 216.897ZM281.192 218.378L282.511 219.861L282.885 219.529L281.566 218.046L281.192 218.378ZM282.472 219.588C281.373 221.913 279.719 223.927 277.684 225.459L277.984 225.858C280.084 224.278 281.789 222.201 282.924 219.802L282.472 219.588ZM278.034 225.808C279.569 223.765 280.479 221.227 280.479 218.48H279.979C279.979 221.114 279.106 223.548 277.634 225.508L278.034 225.808ZM280.479 218.48C280.479 216.697 280.095 215.001 279.406 213.472L278.95 213.677C279.611 215.144 279.979 216.769 279.979 218.48H280.479ZM279.413 213.661L279.419 213.645L278.95 213.472L278.944 213.488L279.413 213.661ZM279.42 213.642L280.168 211.546L279.697 211.378L278.949 213.474L279.42 213.642ZM280.168 211.547C280.364 211.001 280.079 210.401 279.533 210.206L279.365 210.677C279.651 210.779 279.8 211.093 279.697 211.378L280.168 211.547ZM279.534 210.206C278.988 210.011 278.387 210.296 278.194 210.841L278.665 211.009C278.766 210.724 279.08 210.575 279.365 210.677L279.534 210.206ZM278.194 210.841L277.906 211.646L278.377 211.814L278.665 211.009L278.194 210.841ZM278.348 211.589C276.144 208.37 272.441 206.252 268.252 206.252V206.752C272.268 206.752 275.82 208.782 277.935 211.872L278.348 211.589ZM268.252 206.252C267.672 206.252 267.203 206.722 267.203 207.301H267.703C267.703 206.998 267.948 206.752 268.252 206.752V206.252ZM267.203 207.301C267.203 207.88 267.672 208.349 268.252 208.349V207.849C267.948 207.849 267.703 207.604 267.703 207.301H267.203ZM268.252 208.349C268.645 208.349 269.034 208.372 269.416 208.416L269.473 207.919C269.072 207.873 268.665 207.849 268.252 207.849V208.349ZM269.242 208.022L267.549 210.383L267.956 210.674L269.648 208.313L269.242 208.022ZM267.55 210.383C267.211 210.854 267.32 211.509 267.79 211.846L268.082 211.44C267.836 211.263 267.779 210.921 267.956 210.675L267.55 210.383ZM267.79 211.846C267.975 211.979 268.19 212.042 268.401 212.042V211.542C268.29 211.542 268.178 211.509 268.081 211.44L267.79 211.846ZM268.401 212.042C268.726 212.042 269.049 211.891 269.253 211.605L268.847 211.313C268.74 211.463 268.572 211.542 268.401 211.542V212.042ZM269.253 211.605L271.364 208.66L270.957 208.369L268.847 211.313L269.253 211.605ZM271.09 208.754C275.299 209.985 278.382 213.88 278.382 218.48H278.882C278.882 213.651 275.647 209.565 271.231 208.274L271.09 208.754ZM278.382 218.48C278.382 220.554 277.756 222.484 276.682 224.091L277.098 224.369C278.225 222.682 278.882 220.656 278.882 218.48H278.382ZM277.096 224.088L276.403 223.077L275.991 223.36L276.684 224.371L277.096 224.088ZM276.403 223.077C276.075 222.6 275.423 222.477 274.945 222.805L275.228 223.218C275.478 223.046 275.819 223.11 275.991 223.36L276.403 223.077ZM274.945 222.805C274.467 223.133 274.346 223.785 274.673 224.263L275.085 223.98C274.914 223.73 274.978 223.389 275.228 223.218L274.945 222.805ZM274.673 224.263L275.647 225.683L276.059 225.401L275.085 223.98L274.673 224.263ZM275.67 225.372C274.726 226.387 273.577 227.209 272.289 227.771L272.489 228.229C273.84 227.64 275.046 226.777 276.036 225.712L275.67 225.372ZM272.528 227.792C269.728 225.913 267.666 223.521 266.349 220.637L265.894 220.844C267.252 223.818 269.377 226.28 272.25 228.208L272.528 227.792ZM266.322 220.889L267.497 219.304L267.095 219.006L265.92 220.592L266.322 220.889ZM267.497 219.303C267.841 218.838 267.744 218.182 267.279 217.837L266.981 218.238C267.224 218.419 267.275 218.762 267.095 219.006L267.497 219.303ZM267.278 217.836C266.812 217.493 266.157 217.59 265.812 218.055L266.213 218.353C266.394 218.11 266.737 218.059 266.982 218.239L267.278 217.836ZM265.812 218.055L265.23 218.84L265.632 219.138L266.214 218.353L265.812 218.055ZM265.668 218.909C265.012 216.948 264.657 214.784 264.609 212.42L264.11 212.43C264.158 214.838 264.519 217.053 265.194 219.068L265.668 218.909ZM264.609 212.42C264.557 209.801 264.912 207.421 265.283 205.69C265.468 204.824 265.657 204.122 265.8 203.634C265.872 203.39 265.932 203.2 265.975 203.07C265.996 203.005 266.013 202.955 266.025 202.921C266.031 202.904 266.035 202.891 266.038 202.882C266.04 202.877 266.041 202.874 266.042 202.871C266.043 202.869 266.043 202.868 266.043 202.868L265.573 202.697C265.553 202.752 264.003 207.099 264.11 212.43L264.609 212.42ZM266.043 202.867C266.24 202.324 265.96 201.722 265.415 201.524L265.244 201.994C265.529 202.098 265.676 202.412 265.573 202.697L266.043 202.867ZM265.414 201.524C264.872 201.329 264.27 201.607 264.072 202.152L264.542 202.322C264.645 202.039 264.96 201.892 265.245 201.995L265.414 201.524ZM264.072 202.151C264.046 202.224 263.313 204.304 262.872 207.382L263.367 207.452C263.802 204.417 264.524 202.371 264.542 202.323L264.072 202.151ZM263.319 207.266L261.7 205.136L261.302 205.439L262.921 207.568L263.319 207.266ZM261.7 205.136C261.351 204.675 260.693 204.585 260.231 204.936L260.533 205.334C260.776 205.15 261.119 205.198 261.302 205.438L261.7 205.136ZM260.231 204.936C259.77 205.286 259.681 205.944 260.031 206.405L260.429 206.102C260.246 205.861 260.292 205.517 260.533 205.334L260.231 204.936ZM260.031 206.405L262.56 209.732L262.958 209.429L260.429 206.102L260.031 206.405ZM262.56 209.732C262.605 209.791 262.655 209.845 262.71 209.892L263.037 209.513C263.008 209.489 262.982 209.461 262.958 209.429L262.56 209.732ZM262.624 209.685C262.307 214.105 262.832 219.782 266.268 224.624L266.676 224.335C263.334 219.625 262.81 214.082 263.123 209.721L262.624 209.685ZM266.425 224.234L266.059 224.304L266.152 224.795L266.519 224.725L266.425 224.234ZM266.059 224.304C265.49 224.412 265.117 224.961 265.225 225.53L265.716 225.436C265.66 225.139 265.855 224.852 266.152 224.795L266.059 224.304ZM265.225 225.53C265.322 226.033 265.761 226.382 266.255 226.382V225.882C265.997 225.882 265.767 225.699 265.716 225.436L265.225 225.53ZM266.255 226.382C266.319 226.382 266.385 226.376 266.45 226.364L266.359 225.872C266.323 225.879 266.288 225.882 266.255 225.882V226.382ZM266.452 226.364L267.63 226.139L267.537 225.648L266.358 225.873L266.452 226.364ZM267.395 226.057C268.239 227.029 269.219 227.954 270.352 228.814L270.654 228.415C269.548 227.576 268.594 226.675 267.772 225.729L267.395 226.057ZM270.449 228.37C269.769 228.521 269.063 228.604 268.338 228.61L268.343 229.11C269.102 229.104 269.843 229.017 270.557 228.858L270.449 228.37ZM268.252 229.11C268.282 229.11 268.312 229.11 268.342 229.11L268.34 228.61C268.31 228.61 268.281 228.61 268.252 228.61V229.11ZM268.161 229.11C268.191 229.11 268.221 229.11 268.252 229.11V228.61C268.222 228.61 268.193 228.61 268.163 228.61L268.161 229.11ZM268.164 228.61C264.846 228.582 261.903 226.95 260.073 224.452L259.67 224.748C261.588 227.367 264.677 229.08 268.16 229.11L268.164 228.61ZM260.071 224.751L260.902 223.655L260.504 223.353L259.673 224.449L260.071 224.751ZM260.902 223.655C261.253 223.193 261.161 222.536 260.701 222.186L260.398 222.584C260.64 222.767 260.687 223.112 260.504 223.353L260.902 223.655ZM260.701 222.186C260.237 221.835 259.581 221.927 259.232 222.387L259.63 222.69C259.813 222.448 260.156 222.4 260.399 222.584L260.701 222.186ZM259.231 222.387L258.777 222.987L259.175 223.289L259.63 222.69L259.231 222.387ZM259.199 223.025C258.51 221.658 258.121 220.114 258.121 218.48H257.621C257.621 220.194 258.029 221.815 258.753 223.25L259.199 223.025ZM258.121 218.48C258.121 216.395 258.749 214.394 259.937 212.692L259.527 212.406C258.28 214.192 257.621 216.293 257.621 218.48H258.121ZM259.937 212.692C260.267 212.217 260.152 211.564 259.677 211.232L259.391 211.642C259.639 211.815 259.7 212.157 259.527 212.406L259.937 212.692ZM259.677 211.232C259.2 210.899 258.547 211.017 258.216 211.492L258.627 211.778C258.8 211.529 259.141 211.468 259.391 211.642L259.677 211.232ZM258.217 211.492C257.838 212.035 257.506 212.603 257.223 213.191L257.674 213.408C257.945 212.844 258.263 212.299 258.627 211.778L258.217 211.492ZM257.63 213.128L257.384 212.868L257.021 213.212L257.267 213.471L257.63 213.128ZM257.385 212.869C256.986 212.446 256.323 212.431 255.903 212.827L256.246 213.191C256.467 212.983 256.814 212.992 257.021 213.212L257.385 212.869ZM255.902 212.828C255.482 213.226 255.464 213.89 255.862 214.31L256.225 213.966C256.017 213.746 256.026 213.399 256.246 213.191L255.902 212.828ZM255.862 214.31L256.623 215.113L256.986 214.769L256.225 213.966L255.862 214.31ZM256.566 214.867C256.208 216.027 256.024 217.242 256.024 218.48H256.524C256.524 217.291 256.7 216.126 257.043 215.015L256.566 214.867ZM256.024 218.48C256.024 221.227 256.935 223.765 258.47 225.809L258.869 225.509C257.397 223.548 256.524 221.114 256.524 218.48H256.024ZM258.82 225.459C255.587 223.027 253.32 219.38 252.701 215.204L252.207 215.277C252.845 219.588 255.185 223.351 258.519 225.859L258.82 225.459ZM252.652 215.394L254.708 212.733L254.312 212.427L252.256 215.088L252.652 215.394ZM254.708 212.733C255.062 212.275 254.978 211.616 254.519 211.262L254.214 211.658C254.453 211.843 254.497 212.187 254.312 212.427L254.708 212.733ZM254.52 211.262C254.06 210.905 253.4 210.994 253.048 211.451L253.445 211.756C253.628 211.517 253.974 211.471 254.213 211.657L254.52 211.262ZM253.049 211.451L252.084 212.7L252.479 213.005L253.444 211.756L253.049 211.451ZM252.532 212.853C252.55 205.097 258.337 198.427 266.004 197.33L265.934 196.835C258.02 197.967 252.051 204.848 252.032 212.852L252.532 212.853ZM266.004 197.33C266.578 197.248 266.976 196.717 266.894 196.143L266.399 196.214C266.442 196.514 266.234 196.792 265.934 196.835L266.004 197.33ZM266.894 196.143C266.812 195.572 266.282 195.167 265.706 195.254L265.78 195.749C266.077 195.704 266.356 195.913 266.399 196.214L266.894 196.143ZM265.707 195.254C260.712 195.968 256.423 198.768 253.674 202.685L254.083 202.972C256.757 199.162 260.926 196.443 265.778 195.749L265.707 195.254ZM254.128 202.829V200.913H253.628V202.829H254.128ZM254.128 200.913C254.128 200.334 253.66 199.864 253.08 199.864V200.364C253.383 200.364 253.628 200.61 253.628 200.913H254.128ZM253.08 199.864C252.5 199.864 252.031 200.334 252.031 200.913H252.531C252.531 200.61 252.777 200.364 253.08 200.364V199.864ZM252.031 200.913V205.608H252.531V200.913H252.031ZM252.054 205.503C251.013 207.768 250.435 210.275 250.435 212.89H250.935C250.935 210.349 251.497 207.913 252.509 205.712L252.054 205.503ZM250.435 212.89C250.435 213.639 250.481 214.378 250.571 215.103L251.067 215.041C250.98 214.336 250.935 213.619 250.935 212.89H250.435ZM250.57 215.088C250.573 215.131 250.578 215.173 250.586 215.215L251.077 215.122C251.073 215.1 251.07 215.078 251.069 215.055L250.57 215.088ZM250.584 215.201C251.025 218.598 252.428 221.697 254.507 224.216L254.893 223.898C252.871 221.449 251.509 218.437 251.079 215.136L250.584 215.201ZM250.667 220.188C251.78 221.703 253.084 223.069 254.543 224.252L254.858 223.863C253.432 222.708 252.158 221.372 251.07 219.892L250.667 220.188ZM250.448 219.865C250.535 219.932 250.598 220.022 250.632 220.121L251.105 219.959C251.04 219.77 250.92 219.597 250.752 219.468L250.448 219.865ZM246.512 209.056C246.83 213.035 248.222 216.717 250.395 219.81L250.805 219.523C248.681 216.5 247.322 212.903 247.01 209.016L246.512 209.056ZM246.969 209.174L249.96 204.688L249.544 204.411L246.553 208.897L246.969 209.174ZM249.96 204.689C250.281 204.207 250.151 203.555 249.669 203.234L249.392 203.651C249.644 203.818 249.712 204.159 249.544 204.411L249.96 204.689ZM249.669 203.234C249.186 202.913 248.536 203.043 248.215 203.526L248.631 203.802C248.799 203.551 249.138 203.482 249.392 203.651L249.669 203.234ZM248.215 203.525L246.51 206.083L246.926 206.36L248.631 203.803L248.215 203.525ZM248.938 197.143C247.472 199.922 246.625 203 246.469 206.209L246.968 206.233C247.121 203.097 247.948 200.09 249.38 197.377L248.938 197.143ZM249.265 197.487L254.09 195.239L253.879 194.786L249.053 197.033L249.265 197.487ZM254.09 195.239C254.615 194.995 254.843 194.371 254.598 193.846L254.145 194.057C254.273 194.332 254.154 194.658 253.879 194.786L254.09 195.239ZM254.598 193.846C254.355 193.322 253.732 193.094 253.206 193.338L253.416 193.791C253.693 193.663 254.018 193.783 254.145 194.056L254.598 193.846ZM253.205 193.338L250.583 194.559L250.794 195.012L253.416 193.791L253.205 193.338ZM252.989 191.723C252.061 192.631 251.225 193.607 250.486 194.64L250.892 194.931C251.615 193.922 252.432 192.968 253.339 192.08L252.989 191.723ZM252.996 190.947C253.208 191.164 253.205 191.511 252.989 191.723L253.339 192.08C253.752 191.674 253.758 191.011 253.353 190.597L252.996 190.947ZM252.22 190.939C252.438 190.727 252.785 190.731 252.996 190.947L253.353 190.598C252.948 190.183 252.285 190.178 251.871 190.582L252.22 190.939ZM249.905 193.575C250.602 192.648 251.375 191.767 252.22 190.939L251.87 190.582C251.007 191.428 250.218 192.328 249.506 193.275L249.905 193.575ZM249.953 193.461L250.327 190.848L249.832 190.777L249.458 193.39L249.953 193.461ZM250.327 190.848C250.409 190.275 250.01 189.744 249.437 189.662L249.366 190.157C249.666 190.2 249.875 190.477 249.832 190.777L250.327 190.848ZM249.435 189.662C248.865 189.584 248.333 189.977 248.251 190.551L248.745 190.622C248.788 190.324 249.065 190.116 249.368 190.157L249.435 189.662ZM248.251 190.551L247.39 196.571L247.885 196.642L248.745 190.622L248.251 190.551ZM247.39 196.571C247.381 196.629 247.378 196.686 247.379 196.743L247.879 196.732C247.879 196.702 247.88 196.672 247.885 196.642L247.39 196.571ZM245.435 205.242C245.696 202.283 246.519 199.446 247.852 196.852L247.407 196.623C246.044 199.275 245.204 202.175 244.937 205.199L245.435 205.242ZM245.416 205.122L244.462 202.895L244.002 203.092L244.957 205.319L245.416 205.122ZM244.462 202.895C244.233 202.362 243.613 202.116 243.084 202.345L243.283 202.804C243.557 202.685 243.883 202.813 244.002 203.092L244.462 202.895ZM243.085 202.345C242.553 202.573 242.306 203.189 242.535 203.722L242.994 203.524C242.875 203.246 243.004 202.924 243.282 202.804L243.085 202.345ZM242.535 203.721L244.93 209.311L245.39 209.114L242.994 203.525L242.535 203.721ZM244.93 209.311C244.937 209.327 244.944 209.343 244.952 209.358L245.401 209.139C245.397 209.131 245.393 209.122 245.39 209.114L244.93 209.311ZM247.811 217.633C246.509 215.07 245.677 212.23 245.425 209.228L244.927 209.269C245.184 212.338 246.035 215.24 247.365 217.86L247.811 217.633ZM245.277 216.573L247.453 217.957L247.722 217.535L245.546 216.151L245.277 216.573ZM244.52 216.741C244.683 216.485 245.021 216.41 245.278 216.573L245.545 216.151C245.057 215.841 244.409 215.983 244.098 216.473L244.52 216.741ZM244.688 217.498C244.432 217.336 244.357 216.997 244.52 216.741L244.098 216.473C243.787 216.961 243.931 217.609 244.42 217.92L244.688 217.498ZM249.611 220.631L244.688 217.498L244.42 217.92L249.343 221.053L249.611 220.631ZM257.122 227.317C254.184 225.677 251.642 223.409 249.68 220.695L249.275 220.988C251.28 223.761 253.877 226.078 256.879 227.754L257.122 227.317ZM257 227.286L254.392 227.291L254.393 227.791L257.001 227.786L257 227.286ZM254.392 227.291C253.812 227.292 253.344 227.763 253.345 228.342L253.845 228.341C253.845 228.038 254.09 227.792 254.393 227.791L254.392 227.291ZM253.345 228.342C253.346 228.92 253.815 229.388 254.394 229.388V228.888C254.091 228.888 253.846 228.643 253.845 228.341L253.345 228.342ZM254.394 229.388H254.395V228.888H254.394V229.388ZM254.396 229.388L260.477 229.375L260.476 228.875L254.395 228.888L254.396 229.388ZM260.477 229.375C260.489 229.375 260.502 229.375 260.515 229.375L260.496 228.875C260.489 228.875 260.482 228.875 260.476 228.875L260.477 229.375Z" fill="black"/>
<path d="M53.9695 160.978C54.3303 160.447 54.6235 157.858 54.7276 157.224C55.0392 156.079 55.6219 148.834 55.6219 146.647C55.6219 145.492 55.7293 144.004 56.102 143.277C56.7608 142.01 58.2064 139.407 59.3859 138.822C58.7303 138.862 56.5845 140.09 56.102 140.535C55.5501 140.981 55.0385 141.731 54.6946 142.351C54.2662 143.099 54.2328 143.923 54.0539 144.766C53.6781 146.535 53.7057 154.345 53.7056 155.927C53.7056 157.509 53.887 160.951 53.9695 160.978Z" fill="white"/>
<path d="M28.2139 175.758C28.6227 174.495 28.3451 169.077 28.6227 166.856C28.766 165.71 29.0619 164.538 29.4346 163.812C30.0934 162.545 32.3684 160.938 33.5479 160.354C32.8923 160.394 30.7464 161.621 30.264 162.067C28.8998 163.167 28.5564 164.056 28.2139 165.67C28.0247 166.562 27.9501 169.124 27.9501 170.706C27.95 172.288 28.1314 175.73 28.2139 175.758Z" fill="white"/>
<path d="M83.6816 162.287C83.9291 160.158 83.801 157.88 84.5243 155.838C84.9791 154.571 86.5495 152.964 87.3637 152.38C86.9111 152.42 85.4298 153.647 85.0968 154.093C83.9902 155.386 83.6816 156.893 83.6816 158.752C83.6816 160.334 83.6247 162.26 83.6816 162.287Z" fill="white"/>
</g>
<path d="M236.648 101.938C236.535 101.93 236.435 102.016 236.428 102.13C236.412 102.366 236.638 103.093 237.11 103.583C237.258 103.735 237.419 103.853 237.589 103.933C237.285 104.088 236.982 104.211 236.637 104.211C236.636 104.211 236.635 104.211 236.634 104.211C236.52 104.211 236.427 104.304 236.427 104.418C236.427 104.532 236.519 104.625 236.634 104.625H236.637C237.178 104.625 237.611 104.393 238.03 104.168C238.392 103.974 238.733 103.791 239.119 103.773C239.233 103.767 239.321 103.67 239.316 103.556C239.31 103.442 239.215 103.353 239.099 103.359C238.743 103.376 238.431 103.499 238.136 103.645C237.88 103.642 237.641 103.53 237.425 103.312C237.014 102.899 236.837 102.266 236.841 102.158C236.848 102.044 236.762 101.946 236.648 101.938Z" fill="#DF5223" stroke="black" stroke-width="0.2"/>
<path d="M237.559 104.961L237.343 105.178C237.262 105.259 237.262 105.39 237.343 105.471C237.384 105.511 237.437 105.531 237.49 105.531C237.543 105.531 237.596 105.511 237.636 105.471L237.852 105.254C237.933 105.173 237.933 105.042 237.852 104.961C237.771 104.881 237.64 104.881 237.559 104.961Z" fill="#DF5223" stroke="black" stroke-width="0.2"/>
<path d="M237.728 108.229C237.84 108.205 237.911 108.095 237.887 107.984C237.863 107.872 237.753 107.801 237.641 107.824C237.338 107.889 237.098 107.883 236.98 107.86C236.853 107.496 236.686 107.136 236.188 106.897C236.085 106.847 235.961 106.891 235.912 106.994C235.862 107.097 235.906 107.221 236.009 107.27C236.41 107.463 236.503 107.74 236.632 108.124C236.756 108.491 236.91 108.948 237.399 109.38C237.438 109.415 237.487 109.432 237.536 109.432C237.593 109.432 237.65 109.409 237.691 109.362C237.767 109.277 237.759 109.146 237.673 109.07C237.38 108.811 237.234 108.548 237.131 108.289C237.149 108.29 237.167 108.29 237.185 108.29C237.35 108.29 237.536 108.27 237.728 108.229Z" fill="#DF5223" stroke="black" stroke-width="0.2"/>
<path d="M240.121 107.524L239.905 107.74C239.824 107.821 239.824 107.952 239.905 108.033C239.945 108.073 239.998 108.093 240.051 108.093C240.104 108.093 240.157 108.073 240.198 108.033L240.414 107.816C240.495 107.736 240.495 107.604 240.414 107.524C240.333 107.443 240.202 107.443 240.121 107.524Z" fill="#DF5223" stroke="black" stroke-width="0.2"/>
<path d="M230.207 104.347C230.373 104.233 230.645 104.152 230.959 104.11C230.659 104.573 230.416 105.075 230.245 105.589C230.209 105.697 230.268 105.814 230.376 105.85C230.398 105.858 230.42 105.861 230.441 105.861C230.528 105.861 230.609 105.806 230.638 105.719C230.83 105.141 231.12 104.58 231.482 104.077C231.962 104.078 232.455 104.165 232.778 104.355C232.811 104.375 232.847 104.384 232.882 104.384C232.953 104.384 233.022 104.348 233.061 104.282C233.119 104.184 233.086 104.057 232.988 103.999C232.668 103.81 232.24 103.706 231.8 103.672C231.904 103.55 232.013 103.432 232.125 103.321C232.295 103.153 232.47 102.984 232.65 102.817C232.682 102.847 232.716 102.876 232.753 102.904C232.952 103.058 233.201 103.176 233.386 103.203C233.396 103.205 233.406 103.206 233.417 103.206C233.517 103.206 233.606 103.132 233.621 103.029C233.638 102.916 233.56 102.811 233.447 102.794C233.33 102.776 233.125 102.68 232.959 102.538C233.346 102.2 233.757 101.884 234.199 101.625C234.238 101.602 234.278 101.58 234.317 101.558C234.55 101.691 234.783 101.864 234.941 102.073C235.007 102.161 235.056 102.249 235.088 102.338C235.089 102.342 235.09 102.346 235.092 102.349C235.142 102.496 235.145 102.645 235.101 102.8C235.07 102.91 235.134 103.024 235.244 103.055C235.263 103.061 235.282 103.063 235.3 103.063C235.39 103.063 235.474 103.004 235.499 102.912C235.556 102.711 235.559 102.509 235.511 102.313C235.548 102.265 235.606 102.197 235.655 102.138C235.919 101.825 236.306 101.366 236.431 100.927C236.542 100.92 236.654 100.916 236.767 100.916C237.562 100.916 238.292 101.108 238.991 101.404C238.699 101.591 238.446 101.826 238.236 102.021L238.184 102.069C238.1 102.147 238.095 102.278 238.173 102.362C238.214 102.406 238.269 102.428 238.325 102.428C238.376 102.428 238.426 102.41 238.466 102.373L238.518 102.324C238.794 102.068 239.108 101.776 239.456 101.618C239.964 101.868 240.459 102.165 240.955 102.474C241.17 102.608 241.371 102.763 241.557 102.939C241.382 103.084 241.21 103.253 241.047 103.441C240.794 103.151 240.329 102.796 239.888 102.658C239.778 102.624 239.662 102.685 239.628 102.794C239.594 102.903 239.655 103.02 239.764 103.054C240.221 103.197 240.642 103.59 240.785 103.772C240.306 104.436 240.059 105.144 240.104 105.744C240.112 105.853 240.203 105.936 240.31 105.936C240.316 105.936 240.321 105.935 240.326 105.935C240.44 105.926 240.526 105.827 240.517 105.713C240.476 105.162 240.755 104.457 241.265 103.826C241.447 103.6 241.645 103.402 241.845 103.239C242.114 103.548 242.346 103.907 242.539 104.313C242.588 104.417 242.712 104.46 242.815 104.411C242.918 104.362 242.962 104.239 242.913 104.135C242.71 103.708 242.466 103.329 242.185 102.998C242.409 102.863 242.629 102.778 242.827 102.755C242.941 102.742 243.022 102.639 243.009 102.526C242.996 102.412 242.894 102.331 242.78 102.344C242.5 102.376 242.197 102.497 241.896 102.69C241.675 102.475 241.434 102.285 241.174 102.123C240.838 101.913 240.502 101.709 240.161 101.52C240.216 101.531 240.271 101.546 240.326 101.566C240.434 101.606 240.553 101.55 240.592 101.443C240.631 101.336 240.576 101.217 240.469 101.177C240.111 101.046 239.779 101.066 239.476 101.167C238.637 100.771 237.754 100.502 236.767 100.502C236.662 100.502 236.558 100.505 236.456 100.511C236.446 100.466 236.432 100.421 236.412 100.378C236.364 100.274 236.241 100.229 236.137 100.277C236.034 100.325 235.989 100.447 236.036 100.551C235.403 100.635 234.837 100.827 234.319 101.089C233.98 100.925 233.666 100.84 233.521 100.84C233.407 100.84 233.314 100.933 233.314 101.047C233.314 101.162 233.407 101.254 233.521 101.254C233.576 101.254 233.703 101.285 233.862 101.345C233.455 101.595 233.078 101.887 232.719 102.198C232.712 102.173 232.707 102.149 232.704 102.124C232.693 102.01 232.592 101.927 232.478 101.938C232.364 101.95 232.281 102.051 232.292 102.165C232.304 102.277 232.337 102.386 232.392 102.491C232.202 102.666 232.017 102.846 231.834 103.027C231.635 103.224 231.447 103.438 231.273 103.665C230.745 103.69 230.255 103.811 229.972 104.006C229.878 104.071 229.854 104.2 229.919 104.294C229.984 104.389 230.113 104.412 230.207 104.347ZM235.972 100.979C235.819 101.301 235.505 101.673 235.339 101.871C235.332 101.878 235.326 101.885 235.32 101.893C235.305 101.869 235.288 101.846 235.271 101.823C235.13 101.637 234.948 101.476 234.752 101.341C235.149 101.165 235.553 101.045 235.972 100.979Z" fill="#DF5223" stroke="black" stroke-width="0.2"/>
<path d="M241.205 107.704C241.215 107.705 241.225 107.706 241.235 107.706C241.336 107.706 241.425 107.631 241.44 107.528C241.468 107.332 241.397 107.132 241.235 106.951C241.133 106.838 240.93 106.673 240.782 106.673C240.779 106.673 240.777 106.673 240.775 106.673C240.661 106.677 240.571 106.772 240.575 106.887C240.578 106.986 240.652 107.067 240.746 107.084C240.82 107.118 241.054 107.3 241.03 107.47C241.013 107.583 241.092 107.688 241.205 107.704Z" fill="#DF5223" stroke="black" stroke-width="0.2"/>
<path d="M233.356 107.027C233.072 107.112 232.57 107.605 232.494 107.797C232.451 107.903 232.503 108.023 232.609 108.066C232.634 108.076 232.66 108.081 232.686 108.081C232.767 108.081 232.844 108.032 232.877 107.953C232.935 107.841 233.327 107.468 233.475 107.424C233.585 107.391 233.647 107.275 233.614 107.166C233.581 107.056 233.465 106.994 233.356 107.027Z" fill="#DF5223" stroke="black" stroke-width="0.2"/>
<path d="M234.461 110.458C234.752 110.81 235.081 111.208 235.686 111.495C235.715 111.508 235.745 111.515 235.775 111.515C235.852 111.515 235.927 111.471 235.962 111.396C236.011 111.293 235.967 111.169 235.863 111.12C235.518 110.957 235.277 110.75 235.073 110.533C235.117 110.522 235.163 110.51 235.21 110.497C235.655 110.381 236.208 110.236 236.451 110.528C236.491 110.577 236.55 110.602 236.61 110.602C236.657 110.602 236.703 110.587 236.742 110.555C236.83 110.482 236.842 110.351 236.769 110.263C236.358 109.768 235.634 109.958 235.105 110.097C234.98 110.129 234.861 110.161 234.766 110.177C234.368 109.696 233.949 109.203 232.896 109.129C232.782 109.121 232.683 109.207 232.675 109.321C232.667 109.435 232.753 109.534 232.867 109.542C233.756 109.605 234.067 109.981 234.461 110.458Z" fill="#DF5223" stroke="black" stroke-width="0.2"/>
<path d="M243.988 108.253C243.93 108.154 243.803 108.122 243.705 108.18C243.669 108.201 243.605 108.24 243.521 108.292C243.559 107.978 243.578 107.652 243.578 107.314C243.578 107.019 243.564 106.729 243.534 106.445C243.696 106.153 243.796 105.841 243.749 105.489C243.734 105.375 243.629 105.296 243.516 105.311C243.447 105.32 243.391 105.363 243.361 105.42C243.333 105.303 243.302 105.188 243.269 105.074C243.236 104.964 243.121 104.902 243.011 104.934C242.902 104.966 242.839 105.081 242.871 105.191C242.981 105.563 243.06 105.951 243.108 106.354C243.011 106.51 242.893 106.667 242.773 106.827C242.768 106.834 242.763 106.84 242.758 106.847C242.726 106.806 242.691 106.761 242.651 106.711C242.327 106.306 241.785 105.627 241.984 105.101C242.025 104.994 241.971 104.874 241.864 104.834C241.757 104.793 241.637 104.847 241.597 104.954C241.314 105.701 241.948 106.495 242.327 106.97C242.388 107.046 242.46 107.136 242.503 107.197C242.326 107.457 242.172 107.732 242.1 108.044C242.074 108.155 242.143 108.266 242.255 108.292C242.27 108.296 242.286 108.298 242.302 108.298C242.396 108.298 242.481 108.233 242.503 108.137C242.591 107.759 242.852 107.412 243.104 107.076C243.122 107.052 243.14 107.028 243.158 107.004C243.162 107.106 243.164 107.21 243.164 107.314C243.164 107.762 243.129 108.188 243.06 108.591C242.699 108.833 242.309 109.117 242.209 109.271C242.147 109.367 242.174 109.495 242.27 109.558C242.305 109.58 242.344 109.591 242.383 109.591C242.451 109.591 242.517 109.558 242.557 109.496C242.589 109.449 242.731 109.333 242.928 109.188C242.822 109.575 242.682 109.936 242.505 110.269C242.417 110.435 242.32 110.595 242.214 110.748C241.874 110.849 241.556 110.851 241.252 110.754C240.79 110.607 240.401 110.25 240.071 109.875C240.497 109.776 240.955 109.716 241.399 109.672C241.512 109.66 241.595 109.559 241.584 109.445C241.573 109.331 241.471 109.248 241.357 109.259C240.078 109.388 238.686 109.645 238.061 110.58C237.998 110.675 238.023 110.804 238.118 110.867C238.154 110.891 238.194 110.902 238.233 110.902C238.3 110.902 238.366 110.87 238.405 110.81C238.666 110.421 239.108 110.168 239.63 109.997C240.024 110.468 240.507 110.951 241.126 111.148C241.319 111.21 241.515 111.241 241.715 111.241C241.75 111.241 241.786 111.24 241.822 111.238C241.437 111.66 240.97 112.016 240.426 112.301C240.301 112.367 240.175 112.435 240.047 112.505C239.702 112.415 239.323 112.225 239.028 112.052C239.197 111.999 239.372 111.935 239.552 111.854C239.657 111.807 239.703 111.684 239.656 111.58C239.609 111.476 239.486 111.43 239.382 111.477C238.811 111.734 238.276 111.812 237.846 111.875C237.464 111.931 237.133 111.979 236.888 112.134C236.792 112.195 236.763 112.323 236.824 112.42C236.864 112.482 236.931 112.516 236.999 112.516C237.037 112.516 237.076 112.506 237.11 112.484C237.28 112.376 237.556 112.336 237.906 112.285C238.08 112.259 238.27 112.231 238.473 112.191C238.599 112.276 238.87 112.451 239.197 112.615C239.321 112.676 239.44 112.73 239.555 112.776C238.665 113.26 237.745 113.712 236.766 113.712C235.928 113.712 235.169 113.59 234.497 113.348C234.529 113.171 234.542 112.991 234.534 112.81C234.622 112.797 234.721 112.773 234.833 112.745C235.143 112.67 235.528 112.577 235.843 112.686C235.951 112.724 236.069 112.667 236.106 112.558C236.144 112.45 236.087 112.332 235.979 112.295C235.549 112.146 235.079 112.26 234.735 112.343C234.655 112.363 234.556 112.387 234.48 112.399C234.441 112.219 234.383 112.038 234.304 111.858C234.053 111.287 233.652 110.857 233.497 110.739C233.406 110.669 233.276 110.687 233.207 110.777C233.137 110.868 233.155 110.998 233.245 111.068C233.31 111.117 233.686 111.481 233.924 112.025C234.012 112.224 234.07 112.421 234.1 112.617C234.101 112.628 234.102 112.639 234.105 112.65C234.13 112.832 234.13 113.012 234.105 113.189C233.835 113.067 233.58 112.923 233.342 112.758C233.249 112.693 233.12 112.716 233.054 112.81C232.989 112.904 233.012 113.033 233.106 113.098C233.385 113.292 233.684 113.458 234.002 113.597C233.958 113.716 233.903 113.834 233.836 113.951C233.779 114.05 233.814 114.176 233.913 114.233C233.945 114.252 233.981 114.261 234.016 114.261C234.087 114.261 234.157 114.224 234.195 114.157C234.272 114.023 234.336 113.887 234.387 113.749C235.096 113.999 235.892 114.126 236.766 114.126C237.962 114.126 239.073 113.514 240.054 112.974C240.073 112.963 240.092 112.953 240.111 112.943C240.219 112.962 240.321 112.972 240.416 112.972C240.517 112.972 240.612 112.961 240.699 112.939C240.81 112.911 240.877 112.798 240.848 112.687C240.837 112.643 240.813 112.607 240.78 112.58C241.466 112.193 242.032 111.697 242.471 111.1C242.78 110.987 243.1 110.809 243.432 110.561C243.524 110.493 243.543 110.364 243.475 110.272C243.407 110.18 243.277 110.161 243.185 110.229C243.084 110.305 242.984 110.373 242.886 110.434C243.138 109.951 243.322 109.417 243.436 108.836C243.595 108.732 243.759 108.628 243.915 108.536C244.013 108.478 244.046 108.351 243.988 108.253Z" fill="#DF5223" stroke="black" stroke-width="0.2"/>
<path d="M231.97 111.247C232.069 110.952 232.203 110.702 232.355 110.534C232.431 110.449 232.425 110.319 232.34 110.242C232.255 110.165 232.124 110.172 232.047 110.257C231.92 110.397 231.811 110.572 231.719 110.762C231.601 110.529 231.472 110.295 231.346 110.066C231.005 109.449 230.656 108.818 230.482 108.151C230.547 107.93 230.627 107.739 230.72 107.573C230.726 107.579 230.731 107.584 230.737 107.59C231.036 107.895 231.659 108.529 231.659 109.007C231.659 109.121 231.751 109.214 231.866 109.214C231.98 109.214 232.073 109.121 232.073 109.007C232.073 108.359 231.396 107.67 231.033 107.3C231.008 107.275 230.982 107.248 230.958 107.224C231.263 106.856 231.652 106.619 232.081 106.359C232.157 106.313 232.233 106.266 232.31 106.219C232.407 106.158 232.437 106.031 232.377 105.933C232.317 105.836 232.189 105.806 232.092 105.867C232.016 105.914 231.941 105.959 231.866 106.005C231.374 106.304 230.896 106.594 230.531 107.1C230.53 107.103 230.528 107.104 230.526 107.107C230.525 107.108 230.525 107.109 230.524 107.111C230.47 107.187 230.418 107.268 230.369 107.354C230.369 107.341 230.369 107.327 230.369 107.314C230.369 107.088 230.386 106.855 230.42 106.623C230.437 106.51 230.359 106.405 230.246 106.388C230.133 106.371 230.027 106.449 230.011 106.563C229.973 106.814 229.955 107.067 229.955 107.314C229.955 107.603 229.992 107.881 230.055 108.152C229.961 108.51 229.9 108.935 229.882 109.446C229.878 109.561 229.967 109.657 230.081 109.661C230.084 109.661 230.087 109.661 230.089 109.661C230.2 109.661 230.292 109.573 230.296 109.461C230.302 109.289 230.313 109.127 230.329 108.976C230.516 109.42 230.751 109.847 230.983 110.266C231.144 110.559 231.297 110.835 231.431 111.112C231.46 111.173 231.49 111.232 231.521 111.291C231.368 111.83 231.345 112.37 231.465 112.59C231.503 112.659 231.574 112.698 231.647 112.698C231.681 112.698 231.715 112.69 231.746 112.673C231.846 112.618 231.883 112.492 231.829 112.392C231.802 112.341 231.784 112.128 231.833 111.809C231.988 112.037 232.158 112.25 232.344 112.445C232.385 112.488 232.439 112.509 232.494 112.509C232.545 112.509 232.597 112.49 232.637 112.452C232.72 112.374 232.723 112.243 232.644 112.16C232.388 111.89 232.162 111.583 231.97 111.247Z" fill="#DF5223" stroke="black" stroke-width="0.2"/>
<path d="M238.094 107.282C238.235 107.423 238.42 107.493 238.605 107.493C238.79 107.493 238.976 107.423 239.117 107.282L239.382 107.017C239.448 106.951 239.484 106.864 239.484 106.771C239.484 106.678 239.448 106.59 239.382 106.525L238.851 105.994C238.785 105.928 238.698 105.892 238.605 105.892C238.512 105.892 238.425 105.928 238.359 105.994L238.094 106.259C237.812 106.541 237.812 107 238.094 107.282L238.094 107.282ZM238.387 106.552L238.605 106.334L239.042 106.771L238.824 106.989C238.703 107.11 238.507 107.11 238.387 106.989C238.266 106.869 238.266 106.673 238.387 106.552Z" fill="#DF5223" stroke="black" stroke-width="0.2"/>
<path d="M231.287 105.183C231.204 105.262 231.202 105.393 231.281 105.475C231.322 105.518 231.376 105.539 231.43 105.539C231.482 105.539 231.533 105.52 231.574 105.481C231.694 105.365 231.939 105.314 232.083 105.34C232.195 105.36 232.303 105.285 232.323 105.173C232.344 105.06 232.269 104.953 232.157 104.932C231.908 104.887 231.519 104.96 231.287 105.183Z" fill="#DF5223" stroke="black" stroke-width="0.2"/>
<path d="M235.151 109.161C235.191 109.203 235.245 109.224 235.299 109.224C235.351 109.224 235.403 109.204 235.443 109.165C235.526 109.086 235.527 108.954 235.448 108.872C235.242 108.66 234.796 107.592 235.054 106.958C235.21 106.575 235.272 105.894 235.216 105.181C235.187 104.816 235.08 103.924 234.716 103.52C234.639 103.435 234.508 103.428 234.423 103.504C234.339 103.581 234.332 103.712 234.408 103.797C234.599 104.009 234.75 104.552 234.803 105.214C234.83 105.56 234.828 105.9 234.799 106.191C234.409 105.521 233.821 105.267 233.471 105.117C233.389 105.082 233.319 105.051 233.27 105.024C233.17 104.969 233.044 105.005 232.989 105.105C232.933 105.205 232.969 105.331 233.069 105.386C233.136 105.423 233.215 105.457 233.307 105.497C233.731 105.679 234.367 105.954 234.644 106.872C234.366 107.688 234.849 108.851 235.151 109.161Z" fill="#DF5223" stroke="black" stroke-width="0.2"/>
<path d="M205.052 105.011L205.052 105.011L205.054 105.009C206.544 103.939 208.231 103.822 209.937 104.168C211.647 104.516 213.361 105.326 214.891 106.092L214.892 106.093C216.689 106.977 218.562 107.587 220.591 107.984L220.592 107.984C221.898 108.235 222.856 108.046 223.696 107.578C224.475 107.143 225.147 106.47 225.897 105.719C225.945 105.67 225.994 105.621 226.043 105.572C226.289 105.326 226.492 105.328 226.585 105.376C226.668 105.42 226.74 105.543 226.648 105.742C225.605 107.339 224.305 108.259 222.81 108.596C221.309 108.933 219.592 108.686 217.718 107.911C216.858 107.556 215.991 107.118 215.109 106.674C214.992 106.614 214.873 106.555 214.755 106.495C213.754 105.992 212.736 105.493 211.706 105.118C209.643 104.367 207.514 104.105 205.347 105.296L205.347 105.296L205.341 105.3C205.206 105.383 205.081 105.338 205.014 105.256C204.98 105.214 204.967 105.169 204.97 105.131C204.973 105.097 204.991 105.053 205.052 105.011Z" fill="#DF5223" stroke="black" stroke-width="0.3"/>
<path d="M229.181 101.445L229.181 101.445C229.384 101.693 229.321 101.996 229.135 102.176C229.043 102.265 228.928 102.316 228.81 102.316C228.695 102.315 228.561 102.266 228.426 102.12C226.086 99.2523 223.109 98.4834 219.892 98.6808C217.074 98.8538 214.056 99.7697 211.104 100.665C210.697 100.789 210.292 100.912 209.888 101.033C206.542 102.033 203.336 102.868 200.603 102.461C199.241 102.259 198 101.748 196.917 100.795C195.832 99.8407 194.899 98.4361 194.167 96.4333L194.167 96.4333L194.164 96.4258C194.141 96.3728 194.148 96.3304 194.173 96.2913C194.201 96.2469 194.255 96.2033 194.326 96.176C194.397 96.1488 194.47 96.1433 194.526 96.1578C194.579 96.1711 194.618 96.2005 194.641 96.2544L194.641 96.2544L194.643 96.2586C195.431 97.9525 196.459 99.3949 197.788 100.377C199.121 101.362 200.749 101.878 202.724 101.731C205.577 101.538 208.272 100.622 210.918 99.723C211.463 99.5378 212.006 99.3533 212.548 99.1759C215.527 98.2214 218.604 97.4614 221.478 97.6048C224.345 97.7478 227.011 98.7891 229.181 101.445Z" fill="#DF5223" stroke="black" stroke-width="0.3"/>
<path d="M251.878 155.975C251.387 157.17 249.833 158.871 247.69 159.738C246.766 160.112 246.9 160.71 247.379 160.654C248.933 160.474 251.207 158.822 252.222 156.957C253.271 155.027 252.684 154.013 251.878 155.975Z" fill="#302EA7" stroke="black" stroke-width="0.2"/>
<path d="M242.693 160.703C241.633 160.749 239.905 160.256 238.679 159.122C238.15 158.633 237.717 158.904 237.883 159.2C238.422 160.16 240.296 161.138 242.013 161.229C243.79 161.322 244.433 160.628 242.693 160.703Z" fill="#302EA7" stroke="black" stroke-width="0.2"/>
<defs>
<filter id="filter0_i_2_15" x="0.227234" y="0.318237" width="330.546" height="234.476" filterUnits="userSpaceOnUse" color-interpolation-filters="sRGB">
<feFlood flood-opacity="0" result="BackgroundImageFix"/>
<feBlend mode="normal" in="SourceGraphic" in2="BackgroundImageFix" result="shape"/>
<feColorMatrix in="SourceAlpha" type="matrix" values="0 0 0 0 0 0 0 0 0 0 0 0 0 0 0 0 0 0 127 0" result="hardAlpha"/>
<feOffset dy="6.1386"/>
<feGaussianBlur stdDeviation="8.1848"/>
<feComposite in2="hardAlpha" operator="arithmetic" k2="-1" k3="1"/>
<feColorMatrix type="matrix" values="0 0 0 0 0 0 0 0 0 0 0 0 0 0 0 0 0 0 0.25 0"/>
<feBlend mode="normal" in2="shape" result="effect1_innerShadow_2_15"/>
</filter>
</defs>
</svg>
